<?xml version="1.0" encoding="UTF-8" standalone="no"?>
<svg width="993px" height="560px" viewBox="0 0 993 560" version="1.1" xmlns="http://www.w3.org/2000/svg" xmlns:xlink="http://www.w3.org/1999/xlink" xmlns:sketch="http://www.bohemiancoding.com/sketch/ns">
    <!-- Generator: sketchtool 3.4.4 (395) - http://www.bohemiancoding.com/sketch -->
    <title>-g-graphic-02</title>
    <desc>Created with sketchtool.</desc>
    <defs>
        <rect id="path-1" x="0" y="0" width="1220" height="560"></rect>
    </defs>
    <g id="Page-1" stroke="none" stroke-width="1" fill="none" fill-rule="evenodd" sketch:type="MSPage">
        <g id="Desktop---Homepage" sketch:type="MSArtboardGroup" transform="translate(-129.000000, -460.000000)">
            <g id="section02" sketch:type="MSLayerGroup" transform="translate(40.000000, 460.000000)">
                <g id="-g-graphic-02">
                    <mask id="mask-2" sketch:name="Mask" fill="white">
                        <use xlink:href="#path-1"></use>
                    </mask>
                    <use id="Mask" sketch:type="MSShapeGroup" xlink:href="#path-1"></use>
                    <g id="grup" mask="url(#mask-2)" fill="#F6F6F6" sketch:type="MSShapeGroup" opacity="0.5">
                        <g transform="translate(86.000000, -117.000000)" id="Mask">
                            <path d="M692.984981,139.756774 C690.823869,138.649428 688.132897,139.500775 686.983876,141.661887 C686.781458,142.054816 681.810305,151.145776 667.146891,151.145776 C652.554919,151.145776 647.553998,142.138165 647.303952,141.66784 C646.184698,139.494821 643.541355,138.607753 641.326661,139.709146 C639.123875,140.816493 638.230853,143.495558 639.332246,145.704298 C639.62992,146.293692 646.762186,160.075991 667.146891,160.075991 C687.53755,160.075991 694.657908,146.287739 694.949629,145.698344 C696.045068,143.513418 695.163954,140.876028 692.984981,139.756774 M682.02463,130.31456 C686.960062,130.31456 690.954846,125.652987 690.954846,119.895975 C690.954846,114.138963 686.954109,109.47739 682.02463,109.47739 C677.095151,109.47739 673.094415,114.144916 673.094415,119.895975 C673.094415,125.647034 677.095151,130.31456 682.02463,130.31456 M652.263198,130.31456 C657.192677,130.31456 661.18746,125.652987 661.18746,119.895975 C661.18746,114.138963 657.186724,109.47739 652.257245,109.47739 C647.327766,109.47739 643.327029,114.138963 643.327029,119.895975 C643.327029,125.652987 647.327766,130.31456 652.263198,130.31456 M667.140938,177.043401 C642.154195,177.043401 621.894512,156.789672 621.894512,131.796975 C621.894512,106.804279 642.148241,86.5565037 667.140938,86.5565037 C692.12768,86.5565037 712.393316,106.810232 712.393316,131.802929 C712.393316,156.795625 692.12768,177.043401 667.140938,177.043401 M667.140938,74.6495497 C635.575602,74.6495497 609.987558,100.237594 609.987558,131.802929 C609.987558,163.368264 635.575602,188.956308 667.140938,188.956308 C698.700319,188.956308 724.294317,163.368264 724.294317,131.796975 C724.294317,100.237594 698.700319,74.6495497 667.140938,74.6495497" transform="translate(667.140938, 131.802929) rotate(18.000000) translate(-667.140938, -131.802929) "></path>
                            <path d="M652.489704,645.092132 C631.711582,645.092132 614.876979,628.257529 614.876979,607.489704 C614.876979,586.711582 631.721878,569.866683 652.489704,569.866683 C673.267825,569.866683 690.092132,586.721878 690.092132,607.489704 C690.092132,628.267825 673.267825,645.092132 652.489704,645.092132 M722.330139,607.489704 C722.330139,596.688787 728.981609,588.183966 738.979407,582.335615 C737.167242,576.322521 734.788775,570.546244 731.854303,565.120045 C720.641531,568.054517 711.570408,563.668254 703.940781,556.02833 C696.311153,548.408999 693.973872,539.337876 696.908344,528.114808 C691.482145,525.180336 685.705868,522.781276 679.692775,521 C673.844423,530.987501 663.270027,537.628675 652.489704,537.628675 C641.699083,537.628675 631.134984,530.987501 625.276336,521 C619.252946,522.781276 613.497262,525.180336 608.071063,528.114808 C611.005535,539.337876 608.67855,548.408999 601.02833,556.02833 C593.408999,563.668254 584.337876,568.054517 573.114808,565.120045 C570.180336,570.546244 567.791572,576.322521 566,582.335615 C575.987501,588.183966 582.628675,596.688787 582.628675,607.489704 C582.628675,618.270027 575.987501,628.844423 566,634.703071 C567.801869,640.716165 570.180336,646.482145 573.114808,651.918641 C584.337876,648.984169 593.408999,651.311153 601.02833,658.940781 C608.657957,666.580705 611.005535,675.651827 608.071063,686.854303 C613.497262,689.788775 619.263242,692.187835 625.286633,693.989704 C631.134984,683.971313 641.70938,677.340436 652.5,677.340436 C663.280324,677.340436 673.85472,683.981609 679.713367,693.989704 C685.726461,692.177538 691.492441,689.788775 696.928937,686.854303 C693.994465,675.651827 696.32145,666.580705 703.961374,658.940781 C711.591001,651.32145 720.662124,646.935186 731.874896,649.849066 C734.809368,644.422866 737.198131,638.667182 739,632.633496 C728.981609,626.774848 722.330139,618.270027 722.330139,607.489704"></path>
                            <path d="M976.408172,578.424677 C972.164195,574.246328 925.114019,611.944441 911.11327,625.710021 C904.162116,632.546325 901.843242,636.210584 899.715784,638.945105 C898.786047,640.142826 900.016582,640.503782 900.558017,640.782704 C903.314415,642.193717 905.239518,643.495349 907.727932,645.940011 C910.221816,648.384673 911.550793,650.276962 912.972744,652.989607 C913.262604,653.525573 913.634498,654.728763 914.843157,653.820902 C917.632369,651.726258 921.356787,649.440198 928.30794,642.614833 C942.314159,628.854721 980.663088,582.597557 976.408172,578.424677 M884.659509,648.997206 C876.37391,657.135142 883.374284,665.491839 872.37057,677.868283 C867.404679,683.463114 892.813852,681.756773 905.39812,669.385798 C910.741375,664.130047 909.231919,656.484326 903.505831,650.851211 C897.779743,645.229035 889.997295,643.741456 884.659509,648.997206" transform="translate(924.235750, 629.509614) rotate(17.000000) translate(-924.235750, -629.509614) "></path>
                            <path d="M954.068664,254.74502 C947.096683,254.74502 941.462667,249.0928 941.462667,242.139023 C941.462667,235.167042 947.096683,229.533026 954.068664,229.533026 C961.022441,229.533026 966.665559,235.167042 966.665559,242.139023 C966.665559,249.0928 961.022441,254.74502 954.068664,254.74502 M890.356045,254.74502 C883.384064,254.74502 877.750049,249.0928 877.750049,242.139023 C877.750049,235.167042 883.384064,229.533026 890.356045,229.533026 C897.309822,229.533026 902.95294,235.167042 902.95294,242.139023 C902.95294,249.0928 897.309822,254.74502 890.356045,254.74502 M826.643427,254.74502 C819.671446,254.74502 814.03743,249.0928 814.03743,242.139023 C814.03743,235.167042 819.671446,229.533026 826.643427,229.533026 C833.597204,229.533026 839.240322,235.167042 839.240322,242.139023 C839.240322,249.0928 833.597204,254.74502 826.643427,254.74502 M890.356045,102.107789 C897.309822,102.107789 902.95294,107.741805 902.95294,114.713786 C902.95294,121.667563 897.309822,127.319783 890.356045,127.319783 C883.393166,127.319783 877.75915,121.667563 877.75915,114.713786 C877.75915,107.741805 883.393166,102.107789 890.356045,102.107789 M963.170466,222.333501 L963.170466,201.180911 C963.170466,183.587127 948.907942,169.324602 931.314157,169.324602 L913.110552,169.324602 C905.574259,169.324602 899.457848,163.208191 899.457848,155.671898 L899.457848,134.519309 C906.966835,131.060624 912.200372,123.524331 912.200372,114.713786 C912.200372,102.644796 902.425036,92.8694598 890.356045,92.8694598 C878.287055,92.8694598 868.511719,102.644796 868.511719,114.713786 C868.511719,123.515229 873.754357,131.060624 881.254243,134.519309 L881.254243,155.671898 C881.254243,163.208191 875.137831,169.324602 867.601539,169.324602 L849.397933,169.324602 C831.804149,169.324602 817.541624,183.587127 817.541624,201.180911 L817.541624,222.333501 C810.032637,225.792186 804.7991,233.33758 804.7991,242.139023 C804.7991,254.208013 814.574436,263.983349 826.643427,263.983349 C838.712417,263.983349 848.487753,254.198912 848.487753,242.139023 C848.487753,233.33758 843.245115,225.792186 835.745229,222.333501 L835.745229,201.180911 C835.745229,193.644619 841.861641,187.528207 849.397933,187.528207 L867.601539,187.528207 C872.50741,187.528207 877.103821,186.326769 881.254243,184.342576 L881.254243,222.333501 C873.745255,225.792186 868.511719,233.33758 868.511719,242.139023 C868.511719,254.208013 878.287055,263.983349 890.356045,263.983349 C902.425036,263.983349 912.200372,254.198912 912.200372,242.139023 C912.200372,233.33758 906.957733,225.792186 899.457848,222.333501 L899.457848,184.342576 C903.60827,186.326769 908.20468,187.528207 913.110552,187.528207 L931.314157,187.528207 C938.85045,187.528207 944.966861,193.644619 944.966861,201.180911 L944.966861,222.333501 C937.457874,225.792186 932.224337,233.328478 932.224337,242.139023 C932.224337,254.208013 941.999673,263.983349 954.068664,263.983349 C966.137654,263.983349 975.91299,254.198912 975.91299,242.139023 C975.91299,233.33758 970.679454,225.792186 963.170466,222.333501" transform="translate(890.356045, 178.426405) rotate(-13.000000) translate(-890.356045, -178.426405) "></path>
                            <path d="M988.120949,424.882588 L983.39704,424.882588 C979.871452,424.882588 976.427855,429.638032 976.427855,437.364051 C976.427855,445.102685 979.877759,449.851822 983.39704,449.851822 L988.120949,449.851822 C991.652844,449.851822 995.222581,445.096378 995.222581,437.364051 C995.222581,429.638032 991.652844,424.882588 988.120949,424.882588 M949.106126,449.271583 C948.071785,450.848321 944.842624,449.372494 944.842624,449.372494 L926.192958,440.933788 C926.192958,440.933788 924.527922,445.159448 923.24761,448.130024 C921.954684,451.1006 920.970799,454.462207 915.622502,450.703261 C910.267897,446.931702 893.037296,430.205658 893.037296,430.205658 C893.037296,430.205658 890.861396,428.414482 891.946192,426.730525 C892.974226,425.141173 896.209694,426.629614 896.209694,426.629614 L914.853053,435.055706 C914.853053,435.055706 916.524396,430.84266 917.804708,427.872084 C919.097634,424.907815 920.081519,421.527287 925.429817,425.298847 C930.784421,429.057792 948.008716,445.79645 948.008716,445.79645 C948.008716,445.79645 950.184615,447.581319 949.106126,449.271583 M966.261043,437.950598 C966.261043,420.505561 974.315025,410.704553 980.62198,410.704553 L988.915626,410.704553 C984.70258,404.025487 981.214834,400.108868 965.844784,400.108868 L902.724779,400.108868 C879.174608,400.108868 869.08348,421.8111 869.08348,437.950598 C869.08348,454.090096 879.174608,475.792328 902.724779,475.792328 L965.844784,475.792328 C981.221141,475.792328 984.70258,471.875709 988.915626,465.196644 L980.62198,465.196644 C974.315025,465.196644 966.261043,455.395636 966.261043,437.950598" transform="translate(932.153031, 437.950598) rotate(-25.000000) translate(-932.153031, -437.950598) "></path>
                            <path d="M535.578437,329.971979 C535.578437,320.766458 528.703958,316.906979 523.008958,316.906979 C516.811458,316.906979 509.950938,321.925 509.950938,336.671979 C509.950938,348.396979 515.143438,354.929479 523.008958,354.929479 C528.536458,354.929479 535.578437,351.411979 535.578437,341.696979 L535.578437,329.971979 Z M556.173958,352.081979 C556.173958,357.944479 557.841979,360.2825 562.203958,360.2825 C571.925937,360.2825 578.116458,347.894479 578.116458,327.291979 C578.116458,295.801979 555.168958,280.726979 526.519479,280.726979 C497.046458,280.726979 470.239479,300.491979 470.239479,337.844479 C470.239479,373.521979 493.689479,392.951979 529.701979,392.951979 C541.929479,392.951979 550.136979,391.611979 562.6925,387.424479 L565.386458,398.64 C552.991458,402.666979 539.745,403.8325 529.534479,403.8325 C482.299479,403.8325 457,377.87 457,337.8375 C457,297.47 486.319479,270 526.686979,270 C568.729479,270 591,295.125 591,325.945 C591,352.075 582.799479,372.0075 557.004479,372.0075 C545.2725,372.0075 537.574479,367.3175 536.569479,356.925521 C533.554479,368.483021 525.514479,372.0075 514.62,372.0075 C500.0475,372.0075 487.82,360.778021 487.82,338.1725 C487.82,315.3925 498.546979,301.3225 517.809479,301.3225 C528.026979,301.3225 534.391979,305.3425 537.225521,311.7075 L542.09,302.83 L556.16,302.83 L556.16,352.081979 L556.173958,352.081979 Z" transform="translate(524.000000, 336.916250) rotate(15.000000) translate(-524.000000, -336.916250) "></path>
                            <path d="M383.693536,618.284289 L383.693536,678.90993 C383.693536,681.967276 381.046179,683.425665 377.836552,685.704032 C375.259479,687.537268 371.979568,685.264758 371.979568,682.265982 L371.979568,623.028446 C371.979568,621.792623 371.546151,620.615369 370.140475,619.89496 C368.734799,619.174551 324.819133,596.08632 324.819133,596.08632 C324.110438,595.822756 321.01795,593.87238 316.894634,595.992608 C312.976311,598.007411 310.844369,600.197923 310.29967,601.228752 L358.209799,627.479754 C359.480764,628.14745 360.2656,629.178279 360.2656,630.501958 L360.2656,693.769099 C360.2656,695.116205 359.433908,696.557023 358.104373,697.195434 C357.495247,697.499998 356.821694,697.646422 356.153997,697.646422 C355.363305,697.646422 354.566755,697.453142 353.893202,697.037296 C352.63395,696.270031 308.361008,669.12291 305.438373,667.359958 C304.032697,666.516552 302.386884,664.788742 302.351742,663.506063 L301.69576,603.261125 C301.69576,602.101442 301.56105,600.057355 303.388429,597.216718 C307.470746,590.867747 321.714932,583.646086 328.924879,587.388699 L381.631878,614.067261 C382.902843,614.723243 383.693536,616.035207 383.693536,618.284289" transform="translate(342.693536, 642.004036) rotate(-5.000000) translate(-342.693536, -642.004036) "></path>
                            <path d="M209.500719,465.803552 L131.380983,465.803552 C121.833015,465.803552 114.021042,473.615525 114.021042,483.163493 L114.021042,552.603258 L174.780836,552.603258 L200.820748,578.64317 L200.820748,552.603258 L209.500719,552.603258 C219.048687,552.603258 226.86066,544.799965 226.86066,535.243317 L226.86066,483.163493 C226.86066,473.615525 219.048687,465.803552 209.500719,465.803552 L209.500719,465.803552 Z M103.605077,563.019223 L103.605077,509.203405 L70.6211885,509.203405 C61.0732208,509.203405 53.2612472,517.015379 53.2612472,526.563346 L53.2612472,578.64317 C53.2612472,588.191138 61.0732208,596.003111 70.6211885,596.003111 L79.3011591,596.003111 L79.3011591,622.043023 L105.341071,596.003111 L148.740924,596.003111 C158.288892,596.003111 166.100866,588.191138 166.100866,578.64317 L166.100866,562.845624 C165.545348,562.967143 164.95511,563.027903 164.364872,563.027903 L103.605077,563.027903 L103.605077,563.019223 Z" transform="translate(140.060954, 543.923288) rotate(15.000000) translate(-140.060954, -543.923288) "></path>
                            <path d="M28.6529463,252.767108 L105.752914,252.767108 L105.752914,275.897098 L28.6529463,275.897098 L28.6529463,252.767108 Z M90.3329203,337.577072 C95.6451081,337.577072 99.9704163,341.023441 99.9704163,345.287069 C99.9704163,349.550697 95.6451081,352.997066 90.3329203,352.997066 C85.0130226,352.997066 80.6954244,349.550697 80.6954244,345.287069 C80.6954244,341.023441 85.0130226,337.577072 90.3329203,337.577072 L90.3329203,337.577072 Z M80.6954244,299.027089 C80.6954244,294.76346 85.0130226,291.317092 90.3329203,291.317092 C95.6451081,291.317092 99.9704163,294.76346 99.9704163,299.027089 C99.9704163,303.290717 95.6451081,306.737085 90.3329203,306.737085 C85.0130226,306.737085 80.6954244,303.290717 80.6954244,299.027089 L80.6954244,299.027089 Z M90.3329203,314.447082 C95.6451081,314.447082 99.9704163,317.893451 99.9704163,322.157079 C99.9704163,326.420707 95.6451081,329.867076 90.3329203,329.867076 C85.0130226,329.867076 80.6954244,326.420707 80.6954244,322.157079 C80.6954244,317.893451 85.0130226,314.447082 90.3329203,314.447082 L90.3329203,314.447082 Z M67.2029301,337.577072 C72.5151178,337.577072 76.840426,341.023441 76.840426,345.287069 C76.840426,349.550697 72.5151178,352.997066 67.2029301,352.997066 C61.8830323,352.997066 57.5654341,349.550697 57.5654341,345.287069 C57.5654341,341.023441 61.8830323,337.577072 67.2029301,337.577072 L67.2029301,337.577072 Z M57.5654341,299.027089 C57.5654341,294.76346 61.8830323,291.317092 67.2029301,291.317092 C72.5151178,291.317092 76.840426,294.76346 76.840426,299.027089 C76.840426,303.290717 72.5151178,306.737085 67.2029301,306.737085 C61.8830323,306.737085 57.5654341,303.290717 57.5654341,299.027089 L57.5654341,299.027089 Z M67.2029301,314.447082 C72.5151178,314.447082 76.840426,317.893451 76.840426,322.157079 C76.840426,326.420707 72.5151178,329.867076 67.2029301,329.867076 C61.8830323,329.867076 57.5654341,326.420707 57.5654341,322.157079 C57.5654341,317.893451 61.8830323,314.447082 67.2029301,314.447082 L67.2029301,314.447082 Z M44.0729398,337.577072 C49.3851276,337.577072 53.7104358,341.023441 53.7104358,345.287069 C53.7104358,349.550697 49.3851276,352.997066 44.0729398,352.997066 C38.7530421,352.997066 34.4354439,349.550697 34.4354439,345.287069 C34.4354439,341.023441 38.7530421,337.577072 44.0729398,337.577072 L44.0729398,337.577072 Z M34.4354439,299.027089 C34.4354439,294.76346 38.7530421,291.317092 44.0729398,291.317092 C49.3851276,291.317092 53.7104358,294.76346 53.7104358,299.027089 C53.7104358,303.290717 49.3851276,306.737085 44.0729398,306.737085 C38.7530421,306.737085 34.4354439,303.290717 34.4354439,299.027089 L34.4354439,299.027089 Z M44.0729398,314.447082 C49.3851276,314.447082 53.7104358,317.893451 53.7104358,322.157079 C53.7104358,326.420707 49.3851276,329.867076 44.0729398,329.867076 C38.7530421,329.867076 34.4354439,326.420707 34.4354439,322.157079 C34.4354439,317.893451 38.7530421,314.447082 44.0729398,314.447082 L44.0729398,314.447082 Z M102.668915,229.637118 L31.721525,229.637118 C25.7925375,229.637118 20.9429496,234.486706 20.9429496,240.431113 L20.9429496,357.623064 C20.9429496,363.559761 25.7925375,368.417059 31.721525,368.417059 L102.668915,368.417059 C108.597903,368.417059 113.462911,363.552051 113.462911,357.623064 L113.462911,240.431113 C113.462911,234.486706 108.597903,229.637118 102.668915,229.637118 L102.668915,229.637118 Z" transform="translate(67.202930, 299.027089) rotate(-20.000000) translate(-67.202930, -299.027089) "></path>
                            <path d="M226.498892,218.371099 C212.092763,218.371099 198.600248,212.187494 188.862463,202.327151 C169.977399,183.208113 164.71855,149.838929 191.191064,123.043307 C206.689072,107.355891 268.803663,44.4613859 299.79968,13.0754123 C310.807611,1.93378162 324.812641,-2.37802945 338.216022,1.26528378 C351.396571,4.83060559 362.18167,15.7605453 365.713567,29.0970772 C369.301172,42.6898666 365.056211,56.8731624 354.059421,68.0147931 L250.185998,173.191787 C244.258651,179.197126 237.551389,182.751306 230.821844,183.46437 C224.148008,184.177434 217.786136,182.015958 213.329484,177.503598 C205.262944,169.303358 204.104214,153.916766 217.541021,140.323976 L290.496418,66.4549648 C293.493517,63.4244413 298.351268,63.4244413 301.348366,66.4549648 C304.345465,69.4854884 304.345465,74.4100891 301.348366,77.4406127 L228.381827,151.320766 C222.075664,157.693778 221.496299,163.78825 224.181432,166.51795 C225.362445,167.698963 227.145106,168.244903 229.206308,168.010928 C232.359389,167.687821 235.958136,165.604336 239.33405,162.206139 L343.207473,57.0402869 C350.338116,49.8205102 353.067816,41.3305877 350.895198,33.1414891 C348.756005,25.0638069 342.227009,18.4568199 334.260743,16.2842019 C326.17192,14.0893007 317.77113,16.8635667 310.640486,24.0833434 C279.64447,55.4804586 217.541021,118.363822 202.031871,134.051238 C181.798669,154.540697 186.645279,178.127529 199.70327,191.352645 C212.772403,204.57776 236.047269,209.502361 256.291612,188.990619 L364.900228,79.0227242 C367.897326,75.9922007 372.755077,75.9922007 375.752176,79.0227242 C378.749275,82.0532478 378.749275,86.9778485 375.752176,90.0195137 L267.14356,199.987408 C254.341827,212.933983 240.002548,218.371099 226.498892,218.371099"></path>
                        </g>
                    </g>
                </g>
            </g>
        </g>
    </g>
</svg>