<?xml version="1.0" encoding="UTF-8" standalone="no"?>
<svg width="815px" height="380px" viewBox="0 0 815 380" version="1.1" xmlns="http://www.w3.org/2000/svg" xmlns:xlink="http://www.w3.org/1999/xlink" xmlns:sketch="http://www.bohemiancoding.com/sketch/ns">
    <!-- Generator: sketchtool 3.4.4 (395) - http://www.bohemiancoding.com/sketch -->
    <title>graphic_01</title>
    <desc>Created with sketchtool.</desc>
    <defs>
        <rect id="path-1" x="0" y="0" width="1220" height="380"></rect>
        <path id="path-3" d="M0,0.01548 L42.98452,0.01548 L42.98452,43 L0,43"></path>
        <path id="path-5" d="M0,0.4644 L62.5356,0.4644 L62.5356,63 L0,63"></path>
    </defs>
    <g id="Page-1" stroke="none" stroke-width="1" fill="none" fill-rule="evenodd" sketch:type="MSPage">
        <g id="Desktop---Homepage" sketch:type="MSArtboardGroup" transform="translate(-445.000000, -80.000000)">
            <g id="section01" sketch:type="MSLayerGroup" transform="translate(40.000000, 80.000000)">
                <g id="graphic_01">
                    <mask id="mask-2" sketch:name="Mask" fill="white">
                        <use xlink:href="#path-1"></use>
                    </mask>
                    <g id="Mask"></g>
                    <g id="-g-circles" mask="url(#mask-2)" stroke="#FFFFFF" stroke-width="2.5" sketch:type="MSShapeGroup">
                        <g transform="translate(406.000000, -274.000000)">
                            <path d="M933.3842,467.1829 C933.3842,724.8609 724.4952,933.7499 466.8172,933.7499 C209.1392,933.7499 0.2502,724.8609 0.2502,467.1829 C0.2502,209.5049 209.1392,0.6159 466.8172,0.6159 C724.4952,0.6159 933.3842,209.5049 933.3842,467.1829 L933.3842,467.1829 Z" id="Stroke-1" opacity="0.1"></path>
                            <path d="M853.8666,467.1829 C853.8666,680.9449 680.5786,854.2319 466.8166,854.2319 C253.0556,854.2319 79.7676,680.9449 79.7676,467.1829 C79.7676,253.4209 253.0556,80.1329 466.8166,80.1329 C680.5786,80.1329 853.8666,253.4209 853.8666,467.1829 L853.8666,467.1829 Z" id="Stroke-3" opacity="0.2"></path>
                            <path d="M779.1393,467.1829 C779.1393,639.6739 639.3083,779.5049 466.8173,779.5049 C294.3263,779.5049 154.4953,639.6739 154.4953,467.1829 C154.4953,294.6919 294.3263,154.8609 466.8173,154.8609 C639.3083,154.8609 779.1393,294.6919 779.1393,467.1829 L779.1393,467.1829 Z" id="Stroke-5" opacity="0.3"></path>
                            <path d="M710.1602,467.1829 C710.1602,601.5779 601.2122,710.5259 466.8172,710.5259 C332.4222,710.5259 223.4742,601.5779 223.4742,467.1829 C223.4742,332.7879 332.4222,223.8399 466.8172,223.8399 C601.2122,223.8399 710.1602,332.7879 710.1602,467.1829 L710.1602,467.1829 Z" id="Stroke-7" opacity="0.4"></path>
                            <path d="M643.0971,467.1829 C643.0971,564.5399 564.1741,643.4629 466.8171,643.4629 C369.4601,643.4629 290.5371,564.5399 290.5371,467.1829 C290.5371,369.8259 369.4601,290.9029 466.8171,290.9029 C564.1741,290.9029 643.0971,369.8259 643.0971,467.1829 L643.0971,467.1829 Z" id="Stroke-9" opacity="0.4"></path>
                            <path d="M564.5375,467.1829 C564.5375,521.1519 520.7865,564.9029 466.8175,564.9029 C412.8475,564.9029 369.0965,521.1519 369.0965,467.1829 C369.0965,413.2129 412.8475,369.4629 466.8175,369.4629 C520.7865,369.4629 564.5375,413.2129 564.5375,467.1829 L564.5375,467.1829 Z" id="Stroke-11" opacity="0.4"></path>
                            <path d="M512.8846,467.1829 C512.8846,492.6249 492.2596,513.2509 466.8166,513.2509 C441.3746,513.2509 420.7496,492.6249 420.7496,467.1829 C420.7496,441.7409 441.3746,421.1149 466.8166,421.1149 C492.2596,421.1149 512.8846,441.7409 512.8846,467.1829 L512.8846,467.1829 Z" id="Stroke-13" opacity="0.4"></path>
                        </g>
                    </g>
                    <g id="-g-grap-global-pointer" mask="url(#mask-2)" sketch:type="MSShapeGroup">
                        <g transform="translate(1033.000000, 296.000000)">
                            <path d="M31.7133,64 C49.1803,64 63.4263,49.754 63.4263,32.287 C63.4263,14.819 49.1803,0.573 31.7133,0.573 C14.2463,0.573 0.0003,14.819 0.0003,32.287 C0.0003,49.754 14.2463,64 31.7133,64" id="Fill-1" fill="#2B3946"></path>
                            <path d="M32.2215,17.9921 C42.8065,17.9921 51.3875,26.5731 51.3875,37.1581 C51.3875,47.7441 42.8065,56.3251 32.2215,56.3251 C21.6365,56.3251 13.0555,47.7441 13.0555,37.1581 C13.0555,26.5731 21.6365,17.9921 32.2215,17.9921" id="Fill-3" fill="#FFFFFF"></path>
                            <path d="M31.9073,25.2113 C31.8953,25.8993 32.1343,25.6683 32.3613,26.0073 C32.2573,26.2973 32.2393,26.0713 32.1223,26.3703 C32.0183,26.6213 32.1473,26.3953 32.0793,26.8333 C32.2573,26.8433 32.5203,26.7793 32.7543,26.7593 C33.0863,26.7293 33.0793,26.7003 33.1963,26.3613 C33.0123,26.1353 32.8283,25.9093 32.6383,25.6833 C32.3983,25.3193 32.6383,25.5693 32.5643,25.2653 C32.5093,25.1573 32.4593,25.0493 32.4103,24.9413 C32.0913,25.0493 32.1223,25.0193 31.9073,25.2113 M39.0753,28.1893 C38.8853,27.9243 38.8973,27.7913 38.5293,27.7813 C38.3813,27.9383 38.2103,28.1743 38.1303,28.4153 C38.0073,28.7793 38.0933,28.5283 38.1053,28.9213 C38.0993,28.9353 38.1053,28.9553 38.1053,28.9703 C38.0993,29.2063 38.0443,28.9263 38.0803,29.1423 C38.3693,29.0833 38.1483,29.0883 38.3633,29.0193 C38.5653,28.9503 39.1853,28.7633 39.3633,28.8083 C39.7863,28.9063 40.1433,29.2413 40.6213,28.9063 C40.5973,28.4793 40.0813,28.3163 39.7253,28.1303 C39.7443,27.7373 39.8483,28.0463 39.8233,27.6683 C39.7013,27.6633 39.6273,27.6433 39.5103,27.6923 C39.2343,27.8153 39.3883,27.8503 39.3883,27.8943 C39.4003,28.1053 39.6643,27.8503 39.3823,28.1103 C39.3023,28.1793 39.1733,28.1793 39.0753,28.1893 M41.5853,28.0313 C41.6283,28.6313 41.9833,28.8623 42.2353,29.1373 C42.2053,29.4223 42.1373,29.3483 42.1433,29.7463 C42.4443,29.9633 42.6643,30.0953 43.0573,29.9873 C43.1123,29.5063 42.9593,29.5303 42.8123,29.2013 C42.8363,29.1613 42.9043,29.1123 42.9163,29.1033 C43.0273,28.9553 42.9723,29.1613 43.0273,28.9113 C42.7383,28.8183 42.2723,28.5233 42.2353,28.1353 C42.3763,28.0223 42.3333,28.0903 42.4373,28.0223 C42.6643,27.8743 42.4933,28.1003 42.6283,27.8503 C42.5123,27.6243 42.3823,27.5843 42.1003,27.6973 C41.9773,27.7473 41.6523,27.9783 41.5853,28.0313 M42.4683,41.7413 C42.1993,41.8783 42.1613,42.1933 41.9593,42.3703 C41.7383,42.5713 41.4433,42.4783 41.3583,42.8523 C41.2473,43.3183 41.5423,43.1763 41.2163,43.7853 C41.1003,44.0113 41.0943,44.5763 41.2723,44.7443 C41.8063,45.2593 42.0943,43.9573 42.2173,43.5493 C42.3093,43.2603 42.3953,42.9303 42.4933,42.6603 C42.5913,42.3703 42.7323,42.1153 42.4683,41.7413 M35.9143,28.5123 L35.9023,28.5033 C35.8593,28.4743 35.8163,28.4443 35.7793,28.4103 C35.5093,28.1693 35.4543,27.9533 35.1543,28.0073 C35.1473,28.2333 35.1783,28.2433 35.2893,28.3903 C35.7063,28.9113 35.5773,28.7353 35.9023,28.9263 L35.9143,28.9333 C35.9913,28.9773 36.0803,29.0393 36.2033,29.1273 C35.7853,29.4953 36.1723,29.5343 35.9143,29.6573 L35.9023,29.6633 C35.8773,29.6723 35.8533,29.6833 35.8353,29.6923 C35.7493,29.4763 35.9393,29.5803 35.7183,29.2653 C35.5953,29.1033 35.4793,29.0543 35.2893,28.9653 C34.8103,28.7393 34.8713,28.5623 34.5773,28.2673 C34.2453,28.2773 34.3193,28.3803 34.0863,28.4983 C33.8033,28.6363 33.8473,28.4743 33.5153,28.5033 C33.2453,28.9803 33.6323,28.5823 33.1413,28.9753 C32.5513,29.4323 33.0363,29.9093 32.0913,30.0513 C32.0243,30.0613 31.9993,30.0513 31.9323,30.0763 C31.7543,30.1393 31.8583,30.0863 31.7543,30.1893 C31.8343,30.3763 31.7233,30.3463 32.0423,30.3903 C32.6253,30.4683 32.6993,30.1103 33.1223,30.0223 C33.3313,29.9783 34.6383,29.9233 34.7303,29.9483 C35.0123,30.2633 34.7793,30.4843 34.7793,30.7493 C35.0863,30.9113 35.5223,30.9503 35.7003,31.1173 C35.9023,31.3093 35.8043,31.2793 35.9023,31.3143 L35.9143,31.3183 C35.9513,31.3283 36.0053,31.3473 36.0993,31.3833 C36.3443,31.4663 36.3323,31.5163 36.5953,31.5353 C36.8353,30.7343 36.5893,30.8183 37.7433,31.1863 C38.9463,31.5803 38.4063,31.2213 38.9153,31.2743 C39.1673,31.2993 39.0993,31.3783 39.4493,31.3343 C39.5173,31.1963 40.0133,29.9483 39.3693,30.1053 C39.1793,30.1543 39.3083,30.2233 39.0383,30.1543 C38.7563,30.0813 39.0263,30.0263 38.7133,30.0713 C38.4063,30.1153 38.0383,30.3853 37.7983,29.4573 C37.7063,29.1223 37.5403,28.8333 37.1603,29.3383 C37.2583,29.5113 37.3263,29.5253 37.4363,29.6923 C37.4063,29.7413 37.3013,29.8653 37.2643,29.9043 C37.0563,30.1103 37.3513,30.0123 37.0133,30.0563 C36.8293,29.9183 36.8663,29.7413 36.6883,29.4963 C36.3753,29.0393 36.5773,29.2503 36.4183,28.8133 C36.2923,28.7033 36.0843,28.6203 35.9143,28.5123 M19.5123,22.8133 C19.6313,22.7983 19.6303,22.7463 19.9413,22.6713 C19.9163,22.5673 19.8983,22.5673 19.8733,22.5283 L19.8643,22.5093 C19.7453,22.6093 19.6283,22.7113 19.5123,22.8133 M13.5033,33.0253 C14.3673,29.0973 16.4353,25.6203 19.3013,23.0023 C19.5233,23.0793 19.8183,23.0283 20.0393,23.0193 C20.1193,22.8723 20.1683,22.7443 20.3093,22.6903 C20.3643,22.6713 20.4323,22.6663 20.5243,22.6713 C20.5363,22.7443 20.5543,22.8183 20.5733,22.8923 C20.5733,22.8973 20.5853,22.9463 20.5793,22.9363 C20.5853,22.9263 20.5913,22.9653 20.5973,22.9803 C20.9843,22.7543 20.6593,22.7493 20.8673,22.3413 C20.5423,22.2773 20.5853,22.3163 20.3823,22.1103 C20.5793,21.8943 20.9593,21.8203 21.2423,21.8403 C21.2233,22.0373 21.1313,22.0323 21.2053,22.1993 C21.4263,22.0613 21.5793,21.6933 21.9353,21.7613 C22.0033,21.8103 22.0833,21.8553 22.1563,21.8993 C21.9723,22.0713 21.6963,22.0813 21.4573,22.1793 C21.3523,23.2463 21.7943,22.3513 21.6473,23.0833 C21.9113,23.0643 22.1693,22.8723 22.2673,22.6763 C22.1693,22.5483 22.0273,22.5483 21.9483,22.3953 C22.0103,22.1993 22.1423,22.0503 22.3283,21.9613 C22.4543,21.9013 22.6053,21.8703 22.7763,21.8703 C24.7273,21.8843 23.8013,21.9733 24.4023,22.2483 C24.5373,22.3073 24.7763,22.3373 24.8563,22.4543 C24.9793,22.6413 24.8623,22.8183 25.0583,22.9653 C25.2313,23.0933 25.2553,22.9613 25.4823,23.2463 C25.4333,23.4073 25.3163,23.5753 25.0783,23.5803 C24.7463,23.5853 24.9423,23.3593 24.5863,23.3933 C24.5933,23.7273 24.9243,23.8553 24.6173,24.0363 C24.3473,24.1993 24.5183,23.9783 24.3163,24.0913 C24.3103,24.0963 24.2913,24.1053 24.2853,24.1103 C24.2733,24.1203 24.2613,24.1353 24.2553,24.1453 C24.2183,24.1843 24.1873,24.2183 24.1573,24.2533 C23.6663,24.1203 23.7583,24.1793 23.4633,23.8553 C23.3533,23.7323 23.3353,23.7023 23.1383,23.7183 C23.0153,23.7223 22.8563,23.7763 22.7393,23.6683 C22.9793,23.3683 23.0953,23.6583 23.4453,23.4813 C23.5063,23.4523 23.8933,23.1523 23.9543,23.0833 C23.8503,22.8483 23.9423,23.0443 23.7893,22.8923 C23.4453,22.5433 23.3463,22.6313 22.8803,22.6313 C22.6623,22.8823 22.4993,23.1933 22.2613,23.3293 C22.1173,23.4123 21.9463,23.4313 21.7213,23.3343 C21.8253,23.7573 22.0953,23.4323 22.1193,23.9433 C21.9413,23.9093 21.8493,23.8203 21.6653,23.8843 C21.2733,24.0323 21.6223,24.0173 21.6533,24.0963 C21.6533,24.1013 21.8373,24.1203 21.6533,24.1893 C21.4503,24.2623 21.6223,24.1493 21.2303,23.9193 C21.2853,23.8203 21.3403,23.7183 21.3953,23.6143 C21.0763,23.7123 20.6773,23.8703 20.3033,24.0513 C19.8793,24.2623 19.4803,24.5033 19.2413,24.7253 C19.2353,25.0933 19.3033,24.8473 19.3403,25.2853 C19.9103,25.3193 19.7263,25.4913 20.2973,25.6533 C20.4073,25.6833 20.5493,25.7123 20.7203,25.7423 C20.7203,26.0173 20.4753,26.2233 20.6463,26.5093 C21.0453,26.7883 21.0583,26.2433 21.1563,25.8943 C22.5073,25.6123 21.8563,25.2153 22.2053,24.4723 C22.2573,24.3613 22.3313,24.2433 22.4393,24.1153 C22.5423,24.1203 22.9663,24.1643 23.0583,24.1843 C23.3653,24.2383 23.1993,24.3123 23.5313,24.4593 C23.5253,24.7253 23.3903,25.0683 23.7823,25.0053 C24.0833,24.9513 24.0163,24.7153 24.3843,24.6563 C24.5493,25.0443 24.5063,25.2113 24.5803,25.6783 C25.4643,26.0223 25.0713,26.3023 24.8993,26.9463 C25.0103,26.9993 25.1263,27.0493 25.2433,27.0983 C25.2373,27.2843 25.2313,27.4663 25.2243,27.6483 C25.2063,27.6483 24.2793,27.4463 24.2183,27.4273 C24.3593,27.0243 24.6173,27.0193 24.7833,26.6073 C24.4513,26.6653 24.4763,26.7693 24.2363,26.8433 C24.0223,26.9063 23.8563,26.8623 23.6293,26.8923 C23.5493,27.1573 23.6233,26.6603 23.6483,26.9993 C23.6603,27.1283 23.7213,27.0053 23.6353,27.1423 C23.3283,26.9993 23.4333,26.6653 22.8623,26.9753 C22.9913,27.0343 23.1193,27.0883 23.2553,27.1423 C23.2363,27.5203 23.2063,27.2353 23.1263,27.4863 C22.9293,28.1303 23.6603,27.7313 23.8503,27.6973 C23.8013,28.0373 23.5923,28.0373 23.2973,28.1303 C22.9723,28.2283 22.8743,28.3613 22.6163,28.4203 C22.6163,28.0173 22.5553,28.3563 22.7333,28.0763 C22.4753,28.1003 22.2853,28.2183 22.0403,28.3223 L22.0153,28.3313 C21.7003,28.4603 21.6523,28.4793 21.6163,28.8823 C21.3463,28.9653 21.0333,29.0593 20.8433,29.2553 C20.6533,29.4373 20.4623,29.6193 20.2783,29.7963 C20.2603,29.8103 20.2473,29.8253 20.2363,29.8353 C20.3033,30.3413 20.2363,30.3513 19.9283,30.5483 C19.6713,30.7153 19.5853,30.7103 19.3463,30.9213 C18.5793,31.6093 18.9473,31.2893 18.9893,32.4743 C18.8303,32.4253 18.6763,32.3703 18.5303,32.3163 C18.4133,31.5303 18.5723,31.7913 17.9403,31.6093 C17.2593,31.4123 17.3513,31.7463 17.0693,31.8053 C16.7563,31.8743 16.6023,31.5203 16.1483,31.8153 C15.8973,31.9873 15.6583,32.1003 15.5963,32.4053 C15.5223,32.7733 15.3573,33.0433 15.3813,33.4513 C15.4243,34.5573 16.4313,34.6213 16.6883,34.1053 C16.8603,33.7613 16.8183,33.5743 17.3763,33.6633 C17.4313,33.9583 17.3453,34.1743 17.2713,34.4003 C17.2223,34.5323 17.0873,34.7733 17.1553,34.9553 C17.5543,35.1173 17.5663,34.8133 18.0943,35.1273 C18.1313,35.6533 17.8553,36.2423 18.2593,36.5473 C18.5723,36.7783 18.5913,36.5723 18.8673,36.5233 C19.1743,36.4693 19.1193,36.6603 19.4013,36.7053 C19.5603,36.5083 19.4933,36.6313 19.5973,36.3903 C19.7813,35.9723 19.8303,36.1693 20.2663,35.9133 C20.3093,35.8893 20.3463,35.8643 20.3893,35.8353 C20.4383,35.9383 20.4933,36.0363 20.5423,36.1343 C20.8613,35.7563 20.8983,36.1253 21.2663,36.2283 C21.4253,36.2713 21.5383,36.2873 21.6253,36.2883 C21.8923,36.2923 21.9203,36.1623 22.2853,36.2913 C22.3283,36.3113 22.3833,36.3263 22.4323,36.3413 C22.4393,36.3413 22.4573,36.3513 22.4573,36.3603 C22.4633,36.3653 22.4813,36.3803 22.4873,36.3853 C22.5493,36.4543 22.5553,36.5233 22.6043,36.5973 C22.8563,36.8373 23.1083,37.0783 23.3533,37.3143 C23.8373,37.5053 23.8373,37.1473 24.3903,37.6823 C24.6233,37.9033 24.5183,37.8993 24.6483,38.1833 C24.6663,38.2283 24.7033,38.2723 24.7273,38.3263 C24.7763,38.4593 24.8323,38.5863 24.8873,38.7143 C25.1393,39.0443 25.4823,38.8373 25.8323,39.1763 C26.0343,39.3733 25.8813,39.3133 26.3293,39.3923 C27.0223,39.5053 26.7533,39.4423 27.2813,39.8403 C27.4833,39.9873 27.5323,39.9033 27.7223,40.0313 C27.9863,40.4003 27.9183,40.7983 27.6983,41.1223 C27.0173,42.1153 27.2503,41.9523 27.2193,42.7393 C27.1943,43.1913 27.0653,44.1243 26.6423,44.2373 C25.1023,44.6703 25.9973,44.9703 25.5933,45.7313 C25.4763,45.9483 25.3903,46.0013 25.3163,46.1743 C25.0103,46.8903 25.2243,47.1313 24.3163,46.9703 C24.4023,47.1223 24.3473,47.0183 24.4333,47.1563 C24.7033,47.5743 24.7463,47.8893 24.1943,47.9913 C23.7333,48.0803 23.9303,47.9913 23.8873,48.5023 C23.7093,48.5763 23.6293,48.5023 23.5123,48.6203 C23.6723,48.9153 23.5253,48.6703 23.7953,48.8373 C23.7453,48.9993 23.7093,49.1563 23.6663,49.3133 C23.5623,49.6963 23.5313,49.3433 23.4943,49.7903 C23.6533,49.8633 23.7643,49.8493 23.9053,50.0413 C23.8873,50.1883 23.7393,50.5913 23.6973,50.8223 C23.9233,51.1613 24.1083,51.5243 24.5933,51.5593 C24.5863,51.8443 24.6543,51.8143 24.4083,51.8733 C24.2003,51.9223 23.7583,51.7263 23.5743,51.6283 C23.2553,51.4553 22.9603,51.2303 22.7453,50.9053 C22.6233,50.7233 22.6723,50.8123 22.5423,50.6403 C22.3093,50.3413 22.4023,50.2033 22.3343,50.0013 C22.2973,49.8833 22.1073,49.7563 22.1873,49.3723 C22.2053,49.2643 22.3773,48.7483 22.1693,48.8373 C21.9603,48.9203 22.3283,48.8863 22.0403,49.0233 C21.9723,48.8373 21.9173,48.5613 21.8803,48.3313 C21.8063,47.9423 21.7143,47.9283 21.6713,47.6923 C21.5793,47.1463 21.8133,47.0873 21.5553,46.1783 C21.3853,45.5763 21.4533,44.1523 21.2743,43.4223 C21.2463,43.3053 21.2113,43.2073 21.1683,43.1313 C21.0033,42.8563 20.5973,42.7293 20.2723,42.5073 C20.2543,42.5033 20.2423,42.4983 20.2363,42.4883 C19.7883,42.1733 19.3643,40.9403 19.0083,40.4783 C18.8423,40.2573 18.7383,40.3553 18.6643,40.0073 C18.5853,39.6873 18.7073,39.7413 18.8123,39.4753 C18.2663,38.4733 19.5183,38.4883 19.2603,37.2843 C19.2053,37.0633 19.0453,36.7533 18.9103,36.6563 C18.6523,36.7693 18.7753,36.8323 18.6403,37.0483 C18.4313,36.9313 18.2223,36.8123 18.0203,36.6953 C17.3883,36.0863 17.7253,36.5283 17.5483,36.1303 C17.1673,35.2943 16.8053,35.7613 16.3513,35.3483 C16.1483,35.1763 16.1113,34.9063 15.7743,34.9553 C15.2653,35.0243 15.5473,35.1023 15.0193,34.8573 C14.5713,34.6453 14.1053,34.4003 13.7923,34.1153 C13.7803,33.6733 13.9403,33.6533 13.6633,33.2403 C13.6143,33.1643 13.5593,33.0933 13.5033,33.0253 M44.1963,22.1943 C47.7603,25.0503 50.2823,29.1513 51.1013,33.8393 C51.0433,33.7503 50.9843,33.6343 50.9253,33.4613 C50.5503,33.5843 50.5383,33.5943 50.0963,33.6683 L50.0773,33.6953 C49.9013,33.9453 50.0863,33.8393 49.7773,34.1003 C49.4093,34.4103 49.1693,34.8323 48.7583,35.0823 C48.7093,35.5203 48.7953,35.6183 48.6853,36.1393 C48.6423,36.3313 48.4273,36.8473 48.1753,36.8083 C48.0953,36.7933 47.7583,35.9573 47.6783,35.7263 C47.5433,35.3333 47.3903,35.0433 47.2923,34.5913 C47.2373,34.3503 47.1993,33.8893 47.1443,33.7263 C46.8813,33.7653 46.8933,33.9333 46.6413,33.7563 C46.4633,33.6283 46.5433,33.5503 46.4453,33.3583 C46.2363,33.1623 46.0213,32.9653 45.8073,32.7683 C45.6413,32.7153 45.0023,32.8083 44.7323,32.7783 C44.2483,32.7343 44.2053,32.7643 43.9173,32.3753 C43.4073,32.4003 43.4503,32.5913 42.9533,32.1643 C42.6283,31.8893 42.6893,31.4473 42.2173,31.6973 C42.1993,32.1003 42.3953,32.1893 42.5733,32.3753 C42.7013,32.5183 42.8613,32.6163 42.9283,32.8083 C42.9353,32.8133 42.9663,32.9943 42.9723,33.0193 C43.4323,33.0493 43.5423,32.8283 43.7943,32.6413 C44.0393,32.8723 43.8003,32.9113 44.1563,33.0933 C44.4383,33.2353 44.3833,33.1523 44.5673,33.3833 C44.6593,33.6923 43.9353,34.5323 43.6953,34.6853 C43.5113,34.8033 43.4133,34.7343 43.2483,34.8713 C43.0023,35.0783 43.2783,35.0483 42.8493,35.2063 C42.3893,35.3733 41.9343,35.7263 41.4503,35.7563 C41.3453,35.4713 41.2413,35.1813 41.1373,34.8913 C40.8303,33.9033 40.8423,34.2873 40.5293,33.7763 C40.3823,33.5543 40.4433,33.4123 40.3453,33.2153 C40.2773,33.0683 40.1733,33.0043 40.0813,32.8233 C39.9403,32.5433 39.7753,32.1053 39.4493,32.1493 C39.3823,32.3703 39.7503,33.1173 39.8423,33.2993 C39.9343,33.4813 40.0813,33.5603 40.1243,33.8203 C40.1853,34.1793 40.1123,34.1343 40.3083,34.3753 C40.7193,34.8713 40.2903,34.7833 40.9283,35.2693 C41.4063,35.6333 41.2843,35.7413 41.4873,36.2283 C41.7993,36.3163 42.7323,35.8993 42.8913,36.0213 C43.0823,36.3603 42.6713,36.9013 42.5663,37.1963 C42.2233,38.1833 41.6213,38.1693 41.1613,38.9253 C40.9103,39.3343 40.7933,39.3873 40.5603,39.8793 C40.2963,40.4343 41.0943,41.9723 40.6153,42.6163 C40.5113,42.7633 40.1733,42.8523 39.7503,43.2993 C39.3023,43.7853 39.7623,43.7023 39.5903,44.5123 C39.4553,44.6993 39.2903,44.7093 39.1243,44.8423 C39.0633,45.0333 39.1123,45.1853 39.0073,45.4223 C38.8973,45.7063 38.8793,45.5543 38.7193,45.7853 C38.6023,45.9673 38.6153,46.0403 38.4793,46.2083 C38.3633,46.3603 38.3013,46.4043 38.1913,46.5033 C37.6573,46.9943 36.5103,47.0093 36.4123,46.9403 C36.1413,46.7093 36.3263,46.6503 36.2583,46.3263 C36.1933,46.0403 36.0413,45.8023 35.9153,45.5823 L35.9023,45.5593 C35.8413,45.4513 35.7853,45.3483 35.7553,45.2493 C35.5343,44.5513 35.6143,44.0213 35.2273,43.3143 C34.7433,42.3993 35.4973,41.9233 35.4663,41.4073 C35.4543,41.2703 35.4053,41.1863 35.3933,41.0773 C35.3013,40.5083 35.2463,39.9973 34.8653,39.5493 C34.4483,39.0633 34.5033,39.2353 34.6383,38.4343 C34.8103,37.5153 34.4173,37.7513 33.8653,37.7273 C33.5953,36.8913 33.0673,37.2993 32.5403,37.5453 C32.2083,37.6973 32.0853,37.5013 31.7113,37.5543 C30.8763,37.6673 31.5333,38.0263 30.4163,37.1423 C29.9503,36.7733 30.2633,36.9603 29.9863,36.4983 C29.8943,36.3313 29.6123,36.1103 29.4833,35.9433 C29.0603,35.4123 29.5633,34.8773 29.4893,34.2673 C29.3603,33.1373 29.1773,34.1203 29.8083,32.7543 C30.1403,32.0273 30.6433,32.0223 30.7723,31.6973 C30.8833,31.4073 30.8093,31.2013 31.0173,30.9363 C31.2023,30.7203 31.4653,30.7633 31.5703,30.4243 C31.7173,30.0073 31.4353,29.9533 31.1283,29.9433 C30.9993,29.5063 30.9993,29.6143 31.0973,29.2113 C31.1523,28.9853 31.1033,28.8763 31.1523,28.6503 C31.2753,28.0863 32.2393,28.6463 32.5153,28.4153 C32.6443,28.1743 32.6623,27.9383 32.5153,27.7073 C32.3613,27.4763 32.1593,27.5053 32.0553,27.2843 C32.2883,27.1283 32.1163,27.2653 32.3193,27.2203 C32.5583,27.1673 32.5273,27.0983 32.8093,27.0443 C33.0613,26.9943 33.2213,26.7643 33.4663,26.6073 C33.8163,26.3813 33.6503,26.1793 34.0743,26.1103 C34.7553,25.9923 34.3133,26.0123 34.3873,25.3783 C34.4903,25.3393 34.5893,25.2943 34.6873,25.2503 C34.9023,25.5303 34.6323,25.4173 34.8903,25.6043 C34.9573,25.5653 35.0373,25.5263 35.1113,25.4863 C35.0743,25.1813 34.9333,25.2403 34.8413,24.8623 C34.5033,24.9163 34.3803,25.2013 34.1103,25.0983 C33.8473,25.0003 33.8343,24.6213 33.8473,24.3073 C33.9443,24.0713 34.4353,23.9433 34.6253,23.8843 C34.9333,23.7813 34.8903,23.5753 35.1723,23.2953 C35.5403,22.9263 35.2703,23.3003 35.4483,22.8233 C35.8533,22.8083 35.6633,22.7933 35.9023,22.6713 L35.9143,22.6663 L35.9393,22.6563 C36.0803,22.5923 36.2643,22.5773 36.4493,22.5143 C37.1233,22.2883 37.3993,22.4013 37.8903,22.6023 C38.2713,22.7593 39.4183,22.7643 39.5043,23.2463 C39.2283,23.5353 38.9643,23.3243 38.5653,23.3493 C38.6393,23.7223 38.6703,23.7223 39.0073,23.8253 C39.0633,23.6483 38.9833,23.7183 39.0753,23.6043 C39.1853,23.6293 39.2963,23.6483 39.4063,23.6683 C39.5173,23.2903 39.6453,23.3443 40.0203,23.3003 C39.9583,23.0393 39.8913,23.1133 40.0323,22.9063 C40.4193,22.9463 40.1063,22.9123 40.2963,23.2213 C40.5663,23.1873 40.8303,22.8873 41.2043,22.8483 C41.4373,22.8233 41.4253,22.9123 41.7563,22.8773 C42.0263,22.8483 42.0143,22.7493 42.2843,22.8623 C42.3823,22.6803 42.2843,22.6853 42.5243,22.6413 C42.8913,22.5773 43.2113,22.8033 43.5673,22.8523 C43.3033,22.5283 43.0513,22.5923 43.3763,22.0513 C43.7883,21.9683 43.8243,22.0273 44.0023,22.3373 C44.1033,22.2803 44.1463,22.2233 44.1963,22.1943" id="Fill-5" fill="#50B589"></path>
                            <path d="M33.6852,28.4953 L33.9502,28.4953 C34.0332,28.1393 34.4012,27.5043 34.5692,27.1693 L36.5732,23.0723 C37.4882,21.2413 38.3492,19.4323 39.2552,17.6203 C40.3012,15.5293 40.4872,13.4783 39.2522,11.3453 C38.2762,9.6593 36.2432,8.2483 34.2152,8.2483 C32.7022,8.2483 31.6612,8.3933 30.4122,9.2193 C29.5672,9.7793 28.9592,10.3903 28.4162,11.2903 C27.1342,13.4153 27.3102,15.4823 28.3802,17.6203 C28.5362,17.9333 33.5872,28.0743 33.6852,28.4953" id="Fill-7" fill="#EE7B68"></path>
                            <path d="M33.813,17.9179 C35.886,17.9179 37.577,16.2269 37.577,14.1539 C37.577,12.0799 35.886,10.3889 33.813,10.3889 C31.74,10.3889 30.049,12.0799 30.049,14.1539 C30.049,16.2269 31.74,17.9179 33.813,17.9179" id="Fill-9" fill="#FFE457"></path>
                            <path d="M33.8128,12.7827 C34.5708,12.7827 35.1838,13.3967 35.1838,14.1537 C35.1838,14.9107 34.5708,15.5247 33.8128,15.5247 C33.0558,15.5247 32.4418,14.9107 32.4418,14.1537 C32.4418,13.3967 33.0558,12.7827 33.8128,12.7827" id="Fill-11" fill="#FFFFFF"></path>
                        </g>
                    </g>
                    <g id="-g-grap-global" mask="url(#mask-2)">
                        <g transform="translate(934.000000, 123.000000)">
                            <g id="Group-3" stroke-width="1" fill="none" sketch:type="MSLayerGroup">
                                <mask id="mask-4" sketch:name="Clip 2" fill="white">
                                    <use xlink:href="#path-3"></use>
                                </mask>
                                <g id="Clip-2"></g>
                                <path d="M21.492518,43 C33.330418,43 42.984778,33.34478 42.984778,21.50774 C42.984778,9.66984 33.330418,0.01548 21.492518,0.01548 C9.654618,0.01548 0.000258,9.66984 0.000258,21.50774 C0.000258,33.34478 9.654618,43 21.492518,43" id="Fill-1" fill="#50BDCB" sketch:type="MSShapeGroup" mask="url(#mask-4)"></path>
                            </g>
                            <path d="M19.944776,28.100156 C20.351556,30.169316 20.944096,32.118936 21.694016,33.903436 C22.441356,32.124956 23.032176,30.183076 23.438956,28.122516 C22.789656,28.085536 22.132616,28.066616 21.469556,28.066616 C20.956996,28.066616 20.448736,28.078656 19.944776,28.100156 L19.944776,28.100156 Z M19.326436,22.451676 C19.360836,23.747696 19.465756,25.017056 19.636036,26.250296 C20.240616,26.218476 20.852076,26.202136 21.469556,26.202136 C22.238396,26.202136 22.998636,26.227936 23.748556,26.276096 C23.920556,25.035116 24.027196,23.757156 24.061596,22.451676 L19.326436,22.451676 Z M23.640196,16.023176 C22.925536,16.067036 22.201416,16.090256 21.469556,16.090256 C20.889056,16.090256 20.312856,16.075636 19.743536,16.048116 C19.509616,17.505816 19.367716,19.016836 19.326436,20.567416 L24.061596,20.567416 C24.020316,19.007376 23.876696,17.488616 23.640196,16.023176 L23.640196,16.023176 Z M20.094416,14.199116 C20.549356,14.216316 21.007736,14.226636 21.469556,14.226636 C22.081876,14.226636 22.689036,14.210296 23.289316,14.179336 C22.891996,12.383656 22.353636,10.686016 21.694016,9.114796 C21.031816,10.691176 20.491736,12.396556 20.094416,14.199116 L20.094416,14.199116 Z M28.360736,13.534336 C27.141256,11.826376 25.539076,10.409956 23.680616,9.408916 C24.267996,10.854576 24.753036,12.404296 25.121116,14.035716 C26.229656,13.919616 27.311536,13.751056 28.360736,13.534336 L28.360736,13.534336 Z M31.934896,12.573716 C30.059236,10.385876 27.506756,8.794876 24.602536,8.124936 C26.784356,9.337536 28.638516,11.068716 29.999036,13.150776 C30.659516,12.977916 31.305376,12.784416 31.934896,12.573716 L31.934896,12.573716 Z M30.915796,14.759836 C31.787836,16.529716 32.327056,18.492236 32.453476,20.567416 L35.206336,20.567416 C35.044656,18.172316 34.268076,15.945776 33.033976,14.043456 C32.349416,14.304896 31.642496,14.543976 30.915796,14.759836 L30.915796,14.759836 Z M25.925216,20.567416 L30.879676,20.567416 C30.748956,18.632416 30.217476,16.807496 29.366936,15.174356 C28.117356,15.474496 26.817036,15.705836 25.478876,15.860636 C25.729996,17.375956 25.883076,18.950616 25.925216,20.567416 L25.925216,20.567416 Z M29.683416,27.195436 C30.349056,25.733436 30.766156,24.133836 30.879676,22.451676 L25.925216,22.451676 C25.889096,23.815636 25.774716,25.150356 25.588956,26.444656 C27.001936,26.612356 28.371056,26.866056 29.683416,27.195436 L29.683416,27.195436 Z M33.393456,28.389116 C34.418576,26.621816 35.060996,24.605116 35.206336,22.451676 L32.453476,22.451676 C32.342536,24.280036 31.909956,26.022396 31.211636,27.621996 C31.961556,27.852476 32.689116,28.108756 33.393456,28.389116 L33.393456,28.389116 Z M30.384316,29.245676 C28.998856,31.605516 26.998496,33.562016 24.602536,34.893296 C27.751856,34.166596 30.486656,32.357156 32.394136,29.878636 C31.742256,29.647296 31.071456,29.435736 30.384316,29.245676 L30.384316,29.245676 Z M23.680616,33.609316 C25.765256,32.487016 27.525676,30.841836 28.788156,28.849216 C27.652956,28.598956 26.478196,28.405456 25.273336,28.273016 C24.890636,30.165876 24.352276,31.955536 23.680616,33.609316 L23.680616,33.609316 Z M15.477076,28.586056 C16.472096,30.238116 17.805096,31.663996 19.380616,32.767376 C18.854296,31.339776 18.424296,29.819296 18.105236,28.227436 C17.211696,28.313436 16.334496,28.433836 15.477076,28.586056 L15.477076,28.586056 Z M10.598296,29.858856 C12.693256,32.591076 15.791836,34.513176 19.342776,35.074756 C19.547456,35.042076 19.750416,35.005096 19.952516,34.963816 C17.388856,33.570616 15.268096,31.466196 13.855116,28.915436 C12.727656,29.176016 11.639756,29.491636 10.598296,29.858856 L10.598296,29.858856 Z M13.057896,27.247036 C12.452456,25.751496 12.076636,24.138136 11.974296,22.451676 L7.800716,22.451676 C7.946056,24.595656 8.584176,26.605476 9.602416,28.367616 C10.698916,27.933316 11.853896,27.557496 13.057896,27.247036 L13.057896,27.247036 Z M17.461956,22.451676 L13.547236,22.451676 C13.653876,24.016876 14.021956,25.509836 14.609336,26.887556 C15.641336,26.675996 16.704296,26.510876 17.792196,26.395636 C17.609876,25.116816 17.498076,23.798436 17.461956,22.451676 L17.461956,22.451676 Z M14.912916,15.466756 C14.149236,17.023356 13.671076,18.746796 13.547236,20.567416 L17.461956,20.567416 C17.504096,18.967816 17.654596,17.409496 17.901416,15.909656 C16.882316,15.804736 15.884716,15.655956 14.912916,15.466756 L14.912916,15.466756 Z M9.960176,14.064096 C8.733816,15.962116 7.962396,18.180916 7.800716,20.567416 L11.974296,20.567416 C12.092116,18.631556 12.569416,16.792876 13.339976,15.118456 C12.166076,14.826056 11.036036,14.473456 9.960176,14.064096 L9.960176,14.064096 Z M14.231796,13.460376 C15.632736,11.198576 17.607296,9.328936 19.952516,8.054416 C19.750416,8.013136 19.547456,7.976156 19.342776,7.944336 C16.042956,8.465496 13.135296,10.162276 11.059256,12.590916 C12.075776,12.930616 13.136156,13.222156 14.231796,13.460376 L14.231796,13.460376 Z M19.380616,10.250856 C18.017516,11.206316 16.835876,12.402576 15.896756,13.777716 C16.669036,13.904136 17.455936,14.005616 18.256596,14.078716 C18.555876,12.744856 18.933416,11.465176 19.380616,10.250856 L19.380616,10.250856 Z M21.503956,6.204556 C22.486076,6.204556 23.445836,6.298296 24.377216,6.474596 L24.377216,6.474596 L24.442576,6.487496 C24.543196,6.507276 24.643816,6.527916 24.743576,6.549416 L24.769376,6.554576 L24.833876,6.569196 C24.920736,6.588116 25.007596,6.607896 25.093596,6.628536 L25.158096,6.644876 C25.265596,6.670676 25.372236,6.698196 25.478876,6.726576 L25.542516,6.743776 C25.649156,6.773016 25.754936,6.803116 25.859856,6.834076 L25.923496,6.852996 C26.007776,6.878796 26.091196,6.904596 26.174616,6.931256 L26.237396,6.951896 L26.300176,6.971676 C26.382736,6.999196 26.466156,7.027576 26.548716,7.056816 L26.610636,7.078316 L26.624396,7.083476 C26.722436,7.117876 26.820476,7.153996 26.917656,7.190116 L26.918516,7.190976 L26.979576,7.214196 L26.982156,7.215056 C27.074176,7.250316 27.165336,7.286436 27.256496,7.323416 L27.283156,7.333736 L27.343356,7.358676 C27.422476,7.391356 27.500736,7.424896 27.578996,7.458436 L27.583296,7.461016 L27.643496,7.486816 L27.702836,7.512616 C27.777656,7.546156 27.852476,7.579696 27.926436,7.614096 L27.940196,7.620116 L27.998676,7.647636 C28.095856,7.693216 28.192176,7.739656 28.288496,7.787816 L28.291076,7.789536 L28.349556,7.817916 C33.365076,10.329976 36.808516,15.517496 36.808516,21.509116 C36.808516,27.500736 33.365076,32.688256 28.349556,35.200316 L28.291076,35.229556 L28.288496,35.230416 C28.192176,35.278576 28.095856,35.325016 27.998676,35.370596 L27.940196,35.398116 L27.926436,35.404136 C27.852476,35.438536 27.777656,35.472076 27.702836,35.505616 L27.643496,35.531416 L27.583296,35.558076 L27.578996,35.559796 C27.500736,35.593336 27.422476,35.626876 27.343356,35.659556 L27.283156,35.684496 L27.256496,35.694816 C27.165336,35.731796 27.074176,35.767916 26.982156,35.803176 L26.979576,35.804036 L26.918516,35.828116 L26.917656,35.828116 C26.820476,35.864236 26.722436,35.900356 26.624396,35.935616 L26.610636,35.939916 L26.548716,35.962276 C26.466156,35.990656 26.382736,36.019036 26.300176,36.046556 L26.237396,36.067196 L26.174616,36.086976 C26.091196,36.113636 26.007776,36.139436 25.923496,36.165236 L25.859856,36.184156 C25.754936,36.215116 25.649156,36.245216 25.542516,36.274456 L25.478876,36.291656 C25.372236,36.320036 25.265596,36.347556 25.158096,36.374216 L25.093596,36.389696 C25.007596,36.410336 24.920736,36.430116 24.833876,36.449896 L24.769376,36.463656 L24.743576,36.469676 C24.643816,36.491176 24.543196,36.511816 24.442576,36.531596 L24.377216,36.543636 L24.377216,36.543636 C23.445836,36.720796 22.486076,36.814536 21.503956,36.814536 C20.769516,36.814536 20.047976,36.761216 19.341056,36.661456 L19.341056,36.661456 L19.335036,36.660596 C19.101116,36.627056 18.868916,36.589216 18.637576,36.545356 L18.550716,36.528156 C18.463856,36.510956 18.376996,36.493756 18.290996,36.474836 L18.204136,36.456776 L18.198116,36.455056 C17.600416,36.323476 17.016476,36.157496 16.448016,35.957976 L16.435976,35.953676 L16.353416,35.925296 C16.271716,35.895196 16.190016,35.865956 16.109176,35.834996 L16.027476,35.804036 C10.280096,33.601576 6.198536,28.032216 6.198536,21.509116 C6.198536,14.986016 10.280096,9.417516 16.027476,7.214196 L16.109176,7.183236 C16.190016,7.153136 16.271716,7.123036 16.353416,7.093796 L16.435976,7.064556 L16.448016,7.060256 C17.016476,6.861596 17.600416,6.694756 18.198116,6.563176 L18.204136,6.562316 L18.290996,6.543396 C18.376996,6.524476 18.463856,6.507276 18.550716,6.490076 L18.637576,6.473736 C18.868916,6.429876 19.101116,6.391176 19.335036,6.357636 L19.341056,6.356776 L19.341056,6.356776 C20.047116,6.257016 20.769516,6.204556 21.503956,6.204556 L21.503956,6.204556 Z" id="Fill-4" fill="#FFFFFF" sketch:type="MSShapeGroup"></path>
                        </g>
                    </g>
                    <g id="-g-grap-feedback" mask="url(#mask-2)" sketch:type="MSShapeGroup">
                        <g transform="translate(631.000000, 274.000000)">
                            <path d="M27.0817422,55 C41.9979141,55 54.1632266,42.8346875 54.1632266,27.9185156 C54.1632266,13.0023437 41.9979141,0.836171875 27.0817422,0.836171875 C12.1655703,0.836171875 0.0002578125,13.0023437 0.0002578125,27.9185156 C0.0002578125,42.8346875 12.1655703,55 27.0817422,55" id="Fill-1" fill="#2B3946"></path>
                            <path d="M8.61033594,22.7280625 L27.2140859,22.7280625 C28.1482266,22.7280625 28.9122109,23.4920469 28.9122109,24.4261875 L28.9122109,35.5000938 C28.9122109,36.4342344 28.1482266,37.1982188 27.2140859,37.1982188 L10.6573672,37.1982188 L5.90416406,41.562125 L7.97267969,37.0736094 C7.35221094,36.8200937 6.91221094,36.2090781 6.91221094,35.5000938 L6.91221094,24.4261875 C6.91221094,23.4920469 7.67619531,22.7280625 8.61033594,22.7280625" id="Fill-3" fill="#50B589"></path>
                            <path d="M35.5014688,11.9461719 C28.4554531,11.9461719 22.7440469,16.0032813 22.7440469,21.0091406 C22.7440469,26.0141406 28.4554531,30.07125 35.5014688,30.07125 C38.3949844,30.07125 41.0642031,29.3863281 43.2040469,28.2330469 L48.2236563,31.3895312 L46.0262344,26.131875 C47.43475,24.674375 48.25975,22.9100781 48.25975,21.0091406 C48.25975,16.0032813 42.5474844,11.9461719 35.5014688,11.9461719" id="Fill-5" fill="#FFE457"></path>
                            <path d="M41.7400156,17.4959297 L29.4647031,17.4959297 C29.077125,17.4959297 28.7600156,17.8130391 28.7600156,18.1997578 L28.7600156,18.2006172 C28.7600156,18.5873359 29.077125,18.9044453 29.4647031,18.9044453 L41.7400156,18.9044453 C42.1275938,18.9044453 42.4438437,18.5873359 42.4438437,18.2006172 L42.4438437,18.1997578 C42.4438437,17.8130391 42.1275938,17.4959297 41.7400156,17.4959297" id="Fill-7" fill="#F8BF00"></path>
                            <path d="M41.7400156,20.3352187 L29.4647031,20.3352187 C29.077125,20.3352187 28.7600156,20.6523281 28.7600156,21.0399062 L28.7600156,21.0399062 C28.7600156,21.4274844 29.077125,21.7437344 29.4647031,21.7437344 L41.7400156,21.7437344 C42.1275938,21.7437344 42.4438437,21.4274844 42.4438437,21.0399062 L42.4438437,21.0399062 C42.4438437,20.6523281 42.1275938,20.3352187 41.7400156,20.3352187" id="Fill-9" fill="#F8BF00"></path>
                            <path d="M41.7400156,23.1745078 L29.4647031,23.1745078 C29.077125,23.1745078 28.7600156,23.4916172 28.7600156,23.8791953 L28.7600156,23.8791953 C28.7600156,24.2667734 29.077125,24.5838828 29.4647031,24.5838828 L41.7400156,24.5838828 C42.1275938,24.5838828 42.4438437,24.2667734 42.4438437,23.8791953 L42.4438437,23.8791953 C42.4438437,23.4916172 42.1275938,23.1745078 41.7400156,23.1745078" id="Fill-11" fill="#FACC40"></path>
                            <path d="M41.5390078,17.2296094 L29.2636953,17.2296094 C28.8761172,17.2296094 28.5590078,17.5467188 28.5590078,17.9342969 L28.5590078,17.9342969 C28.5590078,18.321875 28.8761172,18.638125 29.2636953,18.638125 L41.5390078,18.638125 C41.9265859,18.638125 42.2436953,18.321875 42.2436953,17.9342969 L42.2436953,17.9342969 C42.2436953,17.5467188 41.9265859,17.2296094 41.5390078,17.2296094" id="Fill-13" fill="#FFFFFF"></path>
                            <path d="M41.5390078,20.0688984 L29.2636953,20.0688984 C28.8761172,20.0688984 28.5590078,20.3860078 28.5590078,20.7735859 L28.5590078,20.7735859 C28.5590078,21.1611641 28.8761172,21.4774141 29.2636953,21.4774141 L41.5390078,21.4774141 C41.9265859,21.4774141 42.2436953,21.1611641 42.2436953,20.7735859 L42.2436953,20.7735859 C42.2436953,20.3860078 41.9265859,20.0688984 41.5390078,20.0688984" id="Fill-15" fill="#FFFFFF"></path>
                            <path d="M41.5390078,22.9083594 L29.2636953,22.9083594 C28.8761172,22.9083594 28.5590078,23.2254687 28.5590078,23.6130469 L28.5590078,23.6130469 C28.5590078,24.000625 28.8761172,24.316875 29.2636953,24.316875 L41.5390078,24.316875 C41.9265859,24.316875 42.2436953,24.000625 42.2436953,23.6130469 L42.2436953,23.6130469 C42.2436953,23.2254687 41.9265859,22.9083594 41.5390078,22.9083594" id="Fill-17" fill="#FFFFFF"></path>
                            <path d="M10.6271172,26.010875 L22.9024297,26.010875 C23.2900078,26.010875 23.6071172,26.3279844 23.6071172,26.7155625 L23.6071172,26.7155625 C23.6071172,27.1031406 23.2900078,27.4193906 22.9024297,27.4193906 L10.6271172,27.4193906 C10.2395391,27.4193906 9.92242969,27.1031406 9.92242969,26.7155625 L9.92242969,26.7155625 C9.92242969,26.3279844 10.2395391,26.010875 10.6271172,26.010875" id="Fill-19" fill="#00AA80"></path>
                            <path d="M10.6271172,28.8501641 L22.9024297,28.8501641 C23.2900078,28.8501641 23.6071172,29.1672734 23.6071172,29.5548516 L23.6071172,29.5548516 C23.6071172,29.9424297 23.2900078,30.2595391 22.9024297,30.2595391 L10.6271172,30.2595391 C10.2395391,30.2595391 9.92242969,29.9424297 9.92242969,29.5548516 L9.92242969,29.5548516 C9.92242969,29.1672734 10.2395391,28.8501641 10.6271172,28.8501641" id="Fill-21" fill="#00AA80"></path>
                            <path d="M10.6271172,31.689625 L22.9024297,31.689625 C23.2900078,31.689625 23.6071172,32.0067344 23.6071172,32.3943125 L23.6071172,32.3943125 C23.6071172,32.7818906 23.2900078,33.0981406 22.9024297,33.0981406 L10.6271172,33.0981406 C10.2395391,33.0981406 9.92242969,32.7818906 9.92242969,32.3943125 L9.92242969,32.3943125 C9.92242969,32.0067344 10.2395391,31.689625 10.6271172,31.689625" id="Fill-23" fill="#00AA80"></path>
                            <path d="M10.828125,25.7445547 L23.1034375,25.7445547 C23.4910156,25.7445547 23.808125,26.0616641 23.808125,26.4492422 L23.808125,26.4492422 C23.808125,26.8368203 23.4910156,27.1530703 23.1034375,27.1530703 L10.828125,27.1530703 C10.4405469,27.1530703 10.1234375,26.8368203 10.1234375,26.4492422 L10.1234375,26.4492422 C10.1234375,26.0616641 10.4405469,25.7445547 10.828125,25.7445547" id="Fill-25" fill="#FFFFFF"></path>
                            <path d="M10.828125,28.5840156 L23.1034375,28.5840156 C23.4910156,28.5840156 23.808125,28.901125 23.808125,29.2887031 L23.808125,29.2887031 C23.808125,29.6762812 23.4910156,29.9925312 23.1034375,29.9925312 L10.828125,29.9925312 C10.4405469,29.9925312 10.1234375,29.6762812 10.1234375,29.2887031 L10.1234375,29.2887031 C10.1234375,28.901125 10.4405469,28.5840156 10.828125,28.5840156" id="Fill-27" fill="#FFFFFF"></path>
                            <path d="M10.828125,31.4232187 L23.1034375,31.4232187 C23.4910156,31.4232187 23.808125,31.7403281 23.808125,32.1279062 L23.808125,32.1279062 C23.808125,32.5154844 23.4910156,32.8317344 23.1034375,32.8317344 L10.828125,32.8317344 C10.4405469,32.8317344 10.1234375,32.5154844 10.1234375,32.1279062 L10.1234375,32.1279062 C10.1234375,31.7403281 10.4405469,31.4232187 10.828125,31.4232187" id="Fill-29" fill="#FFFFFF"></path>
                        </g>
                    </g>
                    <g id="-g-grap-diploma" mask="url(#mask-2)">
                        <g transform="translate(556.000000, 42.000000)">
                            <g id="Group-3" stroke-width="1" fill="none" sketch:type="MSLayerGroup">
                                <mask id="mask-6" sketch:name="Clip 2" fill="white">
                                    <use xlink:href="#path-5"></use>
                                </mask>
                                <g id="Clip-2"></g>
                                <path d="M31.26807,63 C48.48957,63 62.53587,48.9537 62.53587,31.7322 C62.53587,14.5098 48.48957,0.4644 31.26807,0.4644 C14.04657,0.4644 0.00027,14.5098 0.00027,31.7322 C0.00027,48.9537 14.04657,63 31.26807,63" id="Fill-1" fill="#FFE457" sketch:type="MSShapeGroup" mask="url(#mask-6)"></path>
                            </g>
                            <path d="M10.95435,33.34788 L49.37805,18.51858 C50.53725,18.07128 52.35165,18.70398 53.62965,21.72078 C54.90225,24.72498 53.50905,28.27458 50.54175,29.56158 L15.90705,44.59788 C12.76335,45.96318 10.06335,44.25858 8.78445,41.24088 C7.61625,38.48238 7.75485,34.58268 10.95435,33.34788" id="Fill-4" fill="#EEF2F2" sketch:type="MSShapeGroup"></path>
                            <path d="M13.05297,34.30143 C13.70907,34.37163 14.33007,34.60023 14.88357,34.94943 L10.10817,36.92403 C10.10817,36.92403 15.25617,35.15643 16.10487,39.70323 C17.92557,45.96003 9.35487,45.42903 8.81487,38.87343 C8.60517,36.32193 10.70757,34.05033 13.05297,34.30143" id="Fill-6" fill="#D4D4D4" sketch:type="MSShapeGroup"></path>
                            <path d="M10.95435,33.34788 L49.45815,18.48708 C50.12595,18.22968 53.11125,18.50058 54.42345,21.44898 L14.69295,41.21658 C16.51095,36.27198 10.09125,30.92868 8.18595,37.00098 C8.30115,35.38638 9.54495,33.89148 10.95435,33.34788" id="Fill-8" fill="#FFFFFF" sketch:type="MSShapeGroup"></path>
                            <path d="M36.21537,23.36229 C40.34727,22.88889 43.51977,29.71539 41.32917,33.38919 L34.23357,36.42759 C36.52047,31.65129 34.44057,25.87329 28.81557,26.45379 C28.82637,26.37549 28.83717,26.29179 28.96047,26.22249 L36.21537,23.36229 Z" id="Fill-10" fill="#50BDCB" sketch:type="MSShapeGroup"></path>
                            <path d="M34.23402,36.42804 L41.92272,41.97204 L42.51762,37.87884 L48.99852,37.08684 L41.11902,33.28794 L34.23402,36.42804 Z" id="Fill-12" fill="#00B4C2" sketch:type="MSShapeGroup"></path>
                        </g>
                    </g>
                </g>
            </g>
        </g>
    </g>
</svg>